<svg width="64" height="64" viewBox="0 0 64 64" fill="none" xmlns="http://www.w3.org/2000/svg">
<rect width="64" height="64" rx="6" fill="white"/>
<path d="M30.1016 40.8975V35.1455C29.2728 35.2197 28.2214 35.3249 26.9473 35.4609C25.6855 35.5846 24.665 35.764 23.8857 35.999C22.958 36.2835 22.1911 36.7227 21.585 37.3164C20.9788 37.8978 20.6758 38.7142 20.6758 39.7656C20.6758 40.9531 21.0098 41.8499 21.6777 42.4561C22.3457 43.0622 23.3229 43.3652 24.6094 43.3652C25.7103 43.3652 26.7061 43.1302 27.5967 42.6602C28.4873 42.1777 29.3223 41.5902 30.1016 40.8975ZM30.1016 43.792C29.8171 44.0023 29.4336 44.2992 28.9512 44.6826C28.4811 45.0537 28.0234 45.3506 27.5781 45.5732C26.9596 45.8949 26.3597 46.1423 25.7783 46.3154C25.2093 46.4886 24.4053 46.5752 23.3662 46.5752C22.5127 46.5752 21.7025 46.4144 20.9355 46.0928C20.1686 45.7712 19.4945 45.3197 18.9131 44.7383C18.3564 44.1693 17.9111 43.4704 17.5771 42.6416C17.2432 41.8005 17.0762 40.916 17.0762 39.9883C17.0762 38.5534 17.3792 37.335 17.9854 36.333C18.5915 35.3187 19.5501 34.5146 20.8613 33.9209C22.0241 33.389 23.3971 33.0241 24.9805 32.8262C26.5638 32.6159 28.2708 32.4613 30.1016 32.3623V31.6943C30.1016 30.8779 29.9779 30.2223 29.7305 29.7275C29.4831 29.2204 29.1367 28.8307 28.6914 28.5586C28.2461 28.2741 27.7018 28.0885 27.0586 28.002C26.4154 27.903 25.7536 27.8535 25.0732 27.8535C24.2692 27.8535 23.3229 27.9772 22.2344 28.2246C21.1458 28.4596 20.0573 28.806 18.9688 29.2637H18.7646V25.7197C19.4079 25.5342 20.3294 25.3301 21.5293 25.1074C22.7292 24.8848 23.9167 24.7734 25.0918 24.7734C26.5143 24.7734 27.7142 24.8848 28.6914 25.1074C29.6686 25.3301 30.5469 25.7321 31.3262 26.3135C32.0807 26.8825 32.6436 27.6185 33.0146 28.5215C33.3857 29.4245 33.5713 30.5254 33.5713 31.8242V46H30.1016V43.792ZM43.9248 46H39.4902V40.7119H43.9248V46Z" fill="black"/>
</svg>
